<?xml version="1.0" encoding="UTF-8" standalone="no"?>
<svg enable-background="new 691.212 -412.719 1001.288 621.268" height="617.99634" viewBox="691.212 -412.719 998.81754 617.99633" width="998.81757" xmlns="http://www.w3.org/2000/svg">
   <g transform="translate(-1.553114 -1.9861941)">
      <g transform="translate(-10.1881 -11.011094)">
         <g transform="matrix(3.6663611 0 0 3.6663611 -14.996334 -3054.7575)">
            <g transform="translate(6.3482142 -5.0624779)">
               <path d="m381.776 778.78h16v14.876h-16z" fill="#cfbfff" stroke="#000" stroke-width=".25"/>
               <path d="m357.775 769.657h24v24h-24z" fill="#bfffef"/>
               <path d="m357.775 729.657h40v40h-40z" fill="#ffbfcf"/>
               <path d="m397.775 729.657h64v64h-64z" fill="#efffbf"/>
               <path d="m357.775 793.657h104v104h-104z" fill="#ffbfcf"/>
               <path d="m189.775 729.657h168v168h-168z" fill="#cfbfff"/>
            </g>
            <g fill="none" stroke="#000" stroke-width=".25" transform="translate(-413.65178 54.937522)">
               <path d="m777.775 709.657h24v24h-24z" stroke-width=".25011175"/>
               <path d="m777.775 669.657h40v40h-40z"/>
               <path d="m817.775 669.657h64v64h-64z"/>
               <path d="m777.775 733.657h104v104h-104z"/>
               <path d="m609.775 669.657h168v168h-168z"/>
            </g>
            <g enable-background="new">
               <path d="m378.8 744.125h-2.633v-1.125c.775.016 1.406-.151 1.891-.5.489-.354.852-.901 1.086-1.641h1.148v11.25h-.742-.75z"/>
               <path d="m389.839 746.156c.302.136.578.305.828.508.703.568 1.055 1.318 1.055 2.25 0 1.052-.352 1.898-1.055 2.539-.703.641-1.631.961-2.781.961-1.151 0-2.077-.32-2.777-.961-.701-.641-1.051-1.487-1.051-2.539 0-.932.352-1.685 1.055-2.258.244-.198.516-.362.813-.492-.188-.104-.367-.219-.539-.344-.631-.489-.945-1.135-.945-1.938 0-.906.316-1.637.949-2.191.633-.554 1.465-.832 2.496-.832 1.031 0 1.863.277 2.496.832.633.555.949 1.285.949 2.191 0 .802-.318 1.448-.953 1.938-.167.13-.347.242-.54.336zm-1.953.633c-.688 0-1.249.205-1.684.613-.436.409-.652.934-.652 1.574 0 .636.217 1.156.652 1.563.435.406.996.609 1.684.609.688 0 1.25-.203 1.688-.609.438-.406.656-.927.656-1.563 0-.641-.219-1.167-.656-1.578-.437-.406-1.001-.609-1.688-.609zm0-1.219c.572 0 1.041-.16 1.406-.48.364-.32.547-.733.547-1.238 0-.505-.183-.919-.547-1.242-.365-.323-.834-.484-1.406-.484-.573 0-1.042.162-1.406.484-.365.323-.547.737-.547 1.242 0 .505.182.919.547 1.242.364.317.833.476 1.406.476z"/>
            </g>
            <g enable-background="new">
               <path d="m435.376 752.51c0 1.087-.279 1.981-.836 2.682-.558.701-1.604 1.475-3.143 2.322-1.668.916-2.807 1.753-3.415 2.512-.253.328-.461.697-.625 1.107h8.019v1.794h-10.11v-.002c0-1.551.386-2.821 1.158-3.808.772-.987 2.222-2.065 4.348-3.234 1.032-.575 1.736-1.102 2.112-1.582.376-.48.564-1.096.564-1.849 0-.787-.28-1.431-.841-1.931-.561-.5-1.278-.75-2.153-.75-.916 0-1.636.313-2.159.941-.522.627-.801 1.517-.835 2.668h-1.795c-.027-1.627.407-2.903 1.303-3.83.896-.927 2.143-1.39 3.742-1.39 1.367 0 2.488.407 3.363 1.22.87.809 1.303 1.851 1.303 3.13z"/>
               <path d="m441.847 763.327c-1.306 0-2.347-.351-3.122-1.051-.776-.7-1.191-1.666-1.246-2.896h1.784c.075.759.337 1.345.784 1.759.448.414 1.048.62 1.8.62 1.107 0 1.962-.619 2.563-1.856.438-.923.722-2.136.852-3.64-.916 1.128-2.055 1.692-3.415 1.692-1.367 0-2.47-.449-3.307-1.348-.838-.899-1.256-2.083-1.256-3.553 0-1.47.454-2.652 1.363-3.548.909-.896 2.109-1.343 3.6-1.343 1.586 0 2.808.563 3.665 1.687.858 1.125 1.287 2.723 1.287 4.794 0 2.782-.465 4.925-1.395 6.429-.931 1.504-2.25 2.254-3.957 2.254zm3.197-10.274c0-.95-.27-1.726-.81-2.328-.54-.602-1.237-.902-2.092-.902-.855 0-1.552.301-2.092.902-.54.601-.811 1.377-.811 2.328 0 .951.271 1.728.811 2.333.54.605 1.237.908 2.092.908.855 0 1.552-.304 2.092-.913.541-.602.81-1.378.81-2.328z"/>
            </g>
            <g enable-background="new">
               <path d="m399.641 846.433v-1.395-1.395l11.057-15.39h1.245 1.245v15.622h3.387v2.557h-3.387v5.728h-3.005v-5.728h-10.542zm10.542-2.557v-10.894l-7.619 10.661-.166.232z"/>
               <path d="m422.42 852.162c.764-4.007 1.971-7.714 3.621-11.123 1.617-3.298 3.699-6.431 6.247-9.396h-13.322v-2.905h16.519v1.328 1.328c-2.612 3.077-4.715 6.309-6.309 9.695-1.594 3.398-2.733 7.089-3.42 11.073z"/>
            </g>
            <g enable-background="new">
               <path d="m257.306 826.486c1.168-6.128 3.015-11.798 5.539-17.012 2.473-5.044 5.658-9.834 9.554-14.371h-20.374v-4.443h25.264v2.031 2.031c-3.995 4.706-7.211 9.648-9.648 14.828-2.438 5.197-4.181 10.842-5.23 16.936z"/>
               <path d="m294.477 789.923c3.216 0 5.776.868 7.681 2.603 1.904 1.735 2.924 4.126 3.06 7.173h-4.52c-.169-1.811-.796-3.208-1.879-4.189-1.083-.981-2.531-1.473-4.342-1.473-2.827 0-5.002 1.354-6.525 4.063-1.32 2.319-2.048 5.476-2.184 9.471 2.268-2.895 5.163-4.342 8.684-4.342 3.453 0 6.233 1.113 8.341 3.339 2.107 2.226 3.161 5.159 3.161 8.798 0 3.64-1.147 6.567-3.44 8.785-2.294 2.218-5.311 3.326-9.052 3.326-3.995 0-7.071-1.544-9.229-4.634-2.158-3.089-3.237-7.486-3.237-13.19 0-6.313 1.176-11.18 3.529-14.6 2.335-3.42 5.652-5.13 9.952-5.13zm-8.151 25.441c0 2.353.689 4.274 2.069 5.764 1.379 1.489 3.152 2.234 5.319 2.234 2.167 0 3.939-.745 5.319-2.234 1.379-1.489 2.069-3.411 2.069-5.764 0-2.353-.69-4.278-2.069-5.776-1.38-1.498-3.153-2.247-5.319-2.247-2.167 0-3.944.753-5.332 2.26-1.37 1.49-2.056 3.411-2.056 5.763z"/>
            </g>
         </g>
         <path d="m1354.232-221.461h-.08l-4.557 2.46-.688-2.702 5.729-3.065h3.022v26.218h-3.43v-22.911l0 0z"/>
         <path d="m1374.921-221.461h-.08l-4.56 2.46-.686-2.702 5.727-3.065h3.025v26.218h-3.431v-22.911h.01z"/>
         <path d="m1442.421-200.285v1.702l-8.303 17.353h-2.668l8.271-16.858v-.059h-9.32v-2.141h12.021z"/>
      </g>
      <g stroke-width=".917" transform="translate(-10.1881 -11.011094)">
         <path d="m1408.087-251.472h25.057v33.443h-25.057z" fill="#cfbfff" stroke="#231f20" stroke-miterlimit="10"/>
         <path d="m1433.143-251.472h33.442v33.443h-33.442z" fill="#bfffef" stroke="#231f20" stroke-miterlimit="10"/>
         <path d="m1416.46-234.75h16.684v16.722h-16.684z" fill="#efffbf" stroke="#000"/>
         <path d="m1408.087-226.396h8.373v8.367h-8.373z" fill="#ffbfcf" stroke="#231f20" stroke-miterlimit="10"/>
      </g>
      <g transform="translate(-10.1881 -11.011094)">
         <path d="m1413.0406-224.27008h-.013l-.6857.37183-.1027-.40893.8616-.46123h.4546v3.94282h-.5164z"/>
         <path d="m1421.9104-224.11308v-.60956l.781-.7557c1.8697-1.78039 2.7157-2.72841 2.7283-3.83407 0-.74517-.3615-1.43359-1.4577-1.43359-.6631 0-1.2191.33844-1.5566.62115l-.312-.69996c.5054-.42881 1.2316-.74516 2.0726-.74516 1.5816 0 2.248 1.08358 2.248 2.13248 0 1.35161-.9859 2.44676-2.5277 3.93709l-.5897.54231v.022h3.294v.82397z"/>
         <path d="m1422.436-238.558c.371.235 1.219.602 2.113.602 1.651 0 2.17-1.056 2.149-1.848-.016-1.334-1.215-1.906-2.461-1.906h-.719v-.968h.719c.939 0 2.123-.484 2.123-1.609 0-.763-.481-1.438-1.668-1.438-.764 0-1.496.338-1.91.631l-.338-.938c.498-.367 1.467-.733 2.492-.733 1.879 0 2.729 1.115 2.729 2.273 0 .983-.586 1.819-1.76 2.244v.029c1.174.233 2.127 1.113 2.127 2.448 0 1.525-1.188 2.856-3.473 2.856-1.07 0-2.011-.337-2.48-.646z" fill="#231f20"/>
         <path d="m1452.422-226.12v-4.249h-7.248v-1.392l6.959-9.961h2.278v9.697h2.187v1.656h-2.187v4.249zm0-5.905v-5.208c0-.816.022-1.632.069-2.448h-.069c-.48.912-.865 1.584-1.298 2.304l-3.815 5.304v.048z"/>
      </g>
   </g>
   <path d="m692.32089-409.92919c0 340.638996 274.643 613.316 615.35201 613.316 210.447 0 381.047-170.567004 381.047-380.971 0-130.242-105.603-233.826-235.872-233.826-80.063 0-144.966 62.891-144.966 142.935 0 50.194 40.475 90.884 90.4 90.884 30.183 0 56.646-24.461 56.646-54.635 0-19.898-9.105-33.049-36.133-32.029-10.221.386-23.7286 9.80322-22.7916 25.03722 0 0-.4806 8.16121 8.8304 8.16321 0 0 16.5692 1.11857 16.5692-16.49243" style="fill:none;stroke:#0000b5;stroke-width:2.21760011;stroke-linecap:round;stroke-linejoin:round;stroke-miterlimit:10"/>
</svg>
